<?xml version="1.0" standalone="no"?>
<!DOCTYPE svg PUBLIC "-//W3C//DTD SVG 20010904//EN"
 "http://www.w3.org/TR/2001/REC-SVG-20010904/DTD/svg10.dtd">
<svg version="1.0" xmlns="http://www.w3.org/2000/svg"
 width="1920.000000pt" height="1081.000000pt" viewBox="0 0 1920.000000 1081.000000"
 preserveAspectRatio="xMidYMid meet">

<g transform="translate(0.000000,1081.000000) scale(0.100000,-0.100000)"
fill="#000000" stroke="none">
<path d="M12523 10055 c-184 -40 -339 -197 -378 -382 -11 -50 -15 -146 -15
-365 l0 -298 -32 -1 c-18 0 -67 -15 -108 -33 l-75 -32 -3 -127 -3 -127 -3499
0 -3500 0 0 -135 0 -135 -95 0 -95 0 0 -638 0 -638 -622 146 -623 146 -6 -101
c-4 -55 -7 -124 -8 -152 l-1 -53 -180 -2 -180 -3 40 -49 40 -49 -46 -53 -46
-54 186 0 186 0 0 -395 0 -395 -180 -2 -180 -3 40 -49 40 -49 -46 -53 -46 -54
186 0 186 0 0 -153 0 -153 618 143 c339 78 623 143 630 143 9 0 12 -444 12
-2185 l0 -2185 335 0 335 0 0 -760 c0 -500 3 -760 10 -760 7 0 10 833 10 2480
0 1364 3 2480 6 2480 3 0 48 -25 100 -55 l94 -56 0 -2424 c0 -1539 3 -2425 10
-2425 5 0 10 34 12 75 l3 74 129 -75 c71 -41 136 -74 145 -72 9 2 -44 37 -117
78 -72 41 -132 77 -132 80 1 11 192 111 204 107 7 -3 118 -64 246 -137 129
-72 240 -129 247 -128 8 2 -102 69 -244 150 -142 81 -264 153 -271 160 -14 14
-18 482 -4 476 5 -2 191 -109 415 -238 l406 -235 1 -157 c0 -99 4 -158 10
-158 7 0 10 710 10 2110 0 1161 3 2110 8 2110 4 -1 48 -25 97 -54 l90 -52 3
-2057 c1 -1360 5 -2057 12 -2057 7 0 10 698 10 2063 l0 2062 84 48 c46 26 86
47 90 47 3 0 6 -949 6 -2110 0 -1400 3 -2110 10 -2110 7 0 10 260 10 760 l0
760 2215 0 2215 0 0 -107 c0 -178 43 -305 146 -440 136 -177 374 -285 594
-270 166 12 315 76 435 189 152 142 225 312 225 526 l0 102 360 0 360 0 0 -52
c1 -371 187 -641 510 -739 58 -18 99 -23 180 -23 120 0 199 18 305 68 148 70
252 173 325 321 73 148 73 145 80 675 4 313 10 486 18 508 32 96 106 176 201
221 47 22 70 26 141 26 76 0 93 -4 152 -33 81 -40 148 -110 180 -190 l23 -57
3 -1123 c1 -741 6 -1122 12 -1122 7 0 10 383 10 1135 -1 711 -5 1135 -10 1135
-13 0 -13 27 0 33 6 3 5 4 -2 3 -7 -1 -20 13 -30 33 -14 27 -15 37 -5 44 8 6
7 7 -5 3 -11 -3 -22 2 -28 14 -6 11 -7 20 -3 20 4 0 -3 6 -16 13 -13 6 -23 16
-22 21 1 5 -12 15 -31 23 -26 11 -30 16 -18 24 12 7 11 9 -5 7 -24 -3 -105 22
-105 32 0 4 -49 8 -110 8 -60 0 -108 -4 -105 -8 2 -4 -15 -13 -38 -21 -45 -15
-154 -109 -168 -146 -5 -13 -16 -23 -26 -23 -15 0 -15 -2 -4 -9 11 -7 12 -13
3 -23 -6 -8 -14 -33 -18 -55 -3 -23 -11 -40 -18 -39 -6 2 -8 1 -3 -1 11 -7 8
-31 -5 -36 -10 -4 -10 -6 0 -6 6 -1 12 -7 12 -15 0 -8 -6 -17 -12 -19 -10 -4
-10 -6 0 -6 6 -1 12 -7 12 -15 0 -8 -6 -17 -12 -19 -10 -4 -10 -6 0 -6 6 -1
12 -7 12 -15 0 -8 -6 -17 -12 -19 -10 -4 -10 -6 0 -6 6 -1 12 -7 12 -15 0 -8
-6 -17 -12 -19 -10 -4 -10 -6 0 -6 6 -1 12 -7 12 -15 0 -8 -6 -17 -12 -19 -10
-4 -10 -6 0 -6 6 -1 12 -7 12 -15 0 -8 -6 -17 -12 -19 -10 -4 -10 -6 0 -6 6
-1 12 -7 12 -15 0 -8 -6 -17 -12 -19 -10 -4 -10 -6 0 -6 6 -1 12 -7 12 -15 0
-8 -6 -17 -12 -19 -10 -4 -10 -6 0 -6 6 -1 12 -7 12 -15 0 -8 -6 -17 -12 -19
-10 -4 -10 -6 0 -6 6 -1 12 -7 12 -15 0 -8 -6 -17 -12 -19 -10 -4 -10 -6 0 -6
6 -1 12 -7 12 -15 0 -8 -6 -17 -12 -19 -10 -4 -10 -6 0 -6 6 -1 12 -7 12 -15
0 -8 -6 -17 -12 -19 -10 -4 -10 -6 0 -6 6 -1 12 -7 12 -15 0 -8 -6 -17 -12
-19 -10 -4 -10 -6 0 -6 6 -1 12 -7 12 -15 0 -8 -6 -17 -12 -19 -10 -4 -10 -6
0 -6 6 -1 12 -7 12 -15 0 -8 -6 -17 -12 -19 -10 -4 -10 -6 0 -6 6 -1 12 -7 12
-15 0 -8 -6 -17 -12 -19 -10 -4 -10 -6 0 -6 6 -1 12 -7 12 -15 0 -8 -6 -17
-12 -19 -10 -4 -10 -6 0 -6 6 -1 12 -7 12 -15 0 -8 -6 -17 -12 -19 -10 -4 -10
-6 0 -6 6 -1 12 -7 12 -15 0 -8 -6 -17 -12 -19 -10 -4 -10 -6 0 -6 6 -1 12 -8
12 -16 0 -8 -6 -15 -12 -15 -10 0 -9 -3 1 -9 8 -5 10 -14 6 -22 -5 -7 -9 -29
-10 -48 -3 -61 -17 -111 -34 -121 -9 -5 -11 -10 -4 -10 8 0 7 -11 -4 -39 -11
-29 -20 -38 -32 -34 -12 4 -13 3 -3 -4 10 -8 9 -16 -5 -41 -10 -18 -24 -32
-31 -32 -7 0 -10 -5 -7 -10 10 -16 -14 -40 -33 -33 -15 4 -15 3 -2 -6 12 -9 4
-21 -48 -70 -35 -33 -78 -67 -95 -76 -18 -9 -43 -23 -57 -30 -64 -36 -121 -55
-163 -57 -25 -1 -42 -5 -36 -9 6 -3 -18 -9 -53 -12 -81 -7 -190 2 -181 16 4 6
0 8 -9 4 -22 -8 -91 9 -156 39 -43 20 -53 28 -41 35 10 8 8 9 -8 4 -16 -4 -30
1 -47 17 -13 13 -32 28 -42 34 -11 6 -18 15 -16 19 2 4 -7 13 -19 19 -12 6
-21 15 -20 20 1 5 -8 14 -21 21 -13 6 -22 17 -20 23 1 7 -2 12 -7 12 -5 0 -20
14 -32 31 -18 26 -19 33 -8 41 12 8 11 9 -1 5 -21 -6 -56 63 -38 75 10 6 9 8
-4 8 -15 0 -44 58 -33 68 3 3 -1 12 -8 20 -9 12 -9 16 0 19 10 4 9 8 -2 20
-12 11 -15 41 -15 129 l0 114 148 0 149 0 -1 -67 c-1 -38 2 -76 6 -85 5 -10 3
-18 -5 -21 -9 -4 -9 -6 1 -6 15 -1 16 -27 2 -34 -6 -3 -5 -4 2 -3 13 3 40 -62
32 -76 -3 -4 -1 -8 4 -8 4 0 19 -14 31 -31 19 -26 21 -33 10 -41 -11 -8 -10
-9 3 -5 21 7 56 -28 36 -37 -7 -3 -4 -4 7 -1 13 3 30 -4 46 -19 15 -14 52 -30
83 -37 31 -8 56 -16 56 -20 0 -7 89 -5 110 3 8 3 35 11 60 18 25 7 57 21 72
31 14 11 34 19 43 19 9 0 13 4 10 10 -3 5 5 15 19 22 14 6 26 18 26 26 0 7 9
16 20 19 11 3 17 9 14 14 -6 10 23 69 34 69 11 0 13 27 18 275 4 198 7 232 21
242 10 8 12 13 5 13 -16 0 -15 27 1 33 10 4 10 6 0 6 -7 1 -13 7 -13 15 0 8 6
17 13 19 10 4 10 6 0 6 -7 1 -13 7 -13 15 0 8 6 17 13 19 10 4 10 6 0 6 -7 1
-13 7 -13 15 0 8 6 17 13 19 10 4 10 6 0 6 -7 1 -13 7 -13 15 0 8 6 17 13 19
10 4 10 6 0 6 -7 1 -13 7 -13 15 0 8 6 17 13 19 10 4 10 6 0 6 -7 1 -13 7 -13
15 0 8 6 17 13 19 10 4 10 6 0 6 -7 1 -13 7 -13 15 0 8 6 17 13 19 10 4 10 6
0 6 -7 1 -13 7 -13 15 0 8 6 17 13 19 10 4 10 6 0 6 -7 1 -13 7 -13 15 0 8 6
17 13 19 10 4 10 6 0 6 -7 1 -13 7 -13 15 0 8 6 17 13 19 10 4 10 6 0 6 -14 1
-18 31 -5 31 5 0 7 14 6 31 -3 39 23 129 37 129 6 0 7 4 4 10 -7 12 22 70 36
70 6 0 7 5 4 10 -7 11 61 110 75 110 5 0 12 9 15 20 3 11 10 20 14 20 5 0 30
20 56 45 36 35 52 44 69 40 16 -5 17 -4 7 4 -11 7 1 17 53 41 38 18 79 33 92
33 13 0 24 3 24 7 0 11 115 30 180 30 80 0 185 -20 169 -32 -11 -8 -10 -9 3
-4 25 8 120 -23 112 -36 -4 -6 -1 -9 7 -6 15 6 69 -18 69 -30 0 -4 15 -13 33
-20 26 -10 29 -14 17 -23 -12 -9 -12 -10 3 -5 26 9 136 -101 116 -116 -11 -8
-10 -9 3 -4 18 5 43 -25 31 -38 -3 -3 -1 -6 5 -6 15 0 45 -57 37 -70 -3 -6 -2
-10 4 -10 12 0 30 -30 34 -57 1 -10 6 -24 11 -32 5 -8 3 -16 -5 -22 -11 -7
-11 -9 2 -9 11 0 18 -12 23 -38 3 -20 6 -544 6 -1164 0 -1040 1 -1128 16
-1128 16 0 16 86 9 1137 -6 1056 -8 1142 -25 1209 -104 405 -549 628 -942 473
-217 -85 -388 -298 -428 -529 -6 -36 -14 -272 -18 -525 l-7 -460 -27 -55 c-76
-154 -257 -241 -409 -197 -161 47 -247 168 -257 360 l-5 97 112 0 111 0 0 120
0 120 110 0 110 0 0 3460 0 3460 -542 2 -543 3 -3 122 -3 123 -76 35 -76 35
-454 0 -454 0 3 318 3 317 29 62 c34 75 95 134 174 171 47 22 72 26 137 26
102 0 178 -32 247 -105 75 -80 90 -132 97 -339 l6 -175 70 0 70 0 0 206 0 206
-42 85 c-72 145 -207 250 -357 277 -76 14 -125 13 -203 -4z m712 -1087 l50
-23 -327 -3 c-181 -1 -475 -1 -655 0 l-328 3 43 20 c42 20 66 21 605 24 l562
3 50 -24z m100 -688 l0 -645 -702 -3 -703 -2 0 643 c0 354 3 647 7 650 3 4
320 6 702 5 l696 -3 0 -645z m-1425 80 l0 -310 -3490 0 -3490 0 0 310 0 310
3490 0 3490 0 0 -310z m2510 0 l0 -310 -535 0 -535 0 0 310 0 310 535 0 535 0
0 -310z m-2510 -540 l0 -210 720 0 720 0 2 208 3 207 533 3 532 2 0 -3120 0
-3120 -3660 0 -3660 0 0 1237 c0 680 -3 1240 -7 1244 -5 4 -55 34 -112 67
l-104 60 -111 -65 -111 -65 3 -214 3 -215 -23 12 c-13 6 -194 108 -404 225
-209 118 -386 214 -393 214 -9 0 -11 83 -9 358 l3 358 -104 60 c-56 32 -107
60 -111 62 -5 2 -58 -25 -119 -60 l-111 -63 0 -1607 0 -1608 -230 0 -230 0 2
2083 3 2082 1212 280 c666 154 1209 283 1205 286 -4 4 -540 132 -1192 284
-652 153 -1195 282 -1207 286 l-23 9 0 465 0 465 3490 0 3490 0 0 -210z
m-8323 -430 c48 -12 105 -25 126 -31 l37 -10 0 -824 0 -823 -112 -27 c-62 -14
-123 -28 -135 -32 l-23 -5 0 141 0 141 65 0 65 0 0 105 0 105 -65 0 -65 0 0
395 0 395 65 0 65 0 0 105 0 104 -62 3 -63 3 -3 138 c-2 85 1 137 7 137 6 0
50 -9 98 -20z m1960 -461 c948 -222 1723 -406 1723 -409 0 -4 -3382 -790
-3477 -808 l-23 -4 0 817 0 817 28 -4 c15 -2 802 -186 1749 -409z m-1959 99
l3 -88 -226 0 c-124 0 -225 4 -225 8 0 5 9 17 21 28 41 37 43 52 10 93 -17 22
-31 42 -31 45 0 4 100 5 223 4 l222 -3 3 -87z m0 -1000 l3 -88 -226 0 c-124 0
-225 4 -225 8 0 5 9 17 21 28 41 37 43 52 10 93 -17 22 -31 42 -31 45 0 4 100
5 223 4 l222 -3 3 -87z m2124 -974 c54 -30 98 -57 98 -59 0 -2 -43 -28 -96
-59 l-96 -57 -100 57 c-55 31 -97 59 -93 62 7 7 178 110 184 111 3 1 49 -24
103 -55z m108 -434 l0 -349 -72 -42 c-40 -23 -83 -49 -95 -57 l-23 -14 0 353
0 354 88 52 c48 29 90 52 95 52 4 1 7 -156 7 -349z m1158 -302 c51 -29 92 -55
92 -58 0 -8 -176 -110 -190 -110 -20 0 -191 102 -188 112 4 10 168 107 184
107 6 1 52 -23 102 -51z m-665 -308 l347 -195 0 -118 c0 -65 -4 -117 -8 -115
-24 10 -969 553 -980 562 -9 9 9 24 84 68 l97 56 57 -31 c31 -18 212 -120 403
-227z m186 -365 c84 -49 155 -94 157 -100 3 -6 3 -57 2 -113 l-3 -102 -500
289 c-322 187 -504 298 -512 313 -13 23 -18 189 -7 200 5 5 257 -137 863 -487z
m-716 168 l37 -23 -2 -262 -3 -262 -45 -26 c-25 -14 -66 -38 -92 -53 l-48 -28
0 371 0 371 58 -32 c31 -18 74 -43 95 -56z m467 -270 l410 -238 0 -232 c0
-128 -2 -233 -4 -233 -6 0 -526 293 -673 379 -67 39 -129 71 -137 71 -14 0
-16 29 -16 245 0 135 2 245 5 245 3 0 190 -107 415 -237z m18 -509 l391 -219
1 -118 c0 -66 -4 -117 -9 -115 -22 8 -990 564 -990 568 -1 12 176 109 195 106
12 -1 197 -101 412 -222z m-112 -191 l503 -288 1 -109 c0 -87 -3 -107 -13
-103 -8 3 -110 61 -228 129 -118 69 -333 194 -479 278 -146 84 -275 163 -287
177 -20 21 -23 35 -23 114 0 59 4 89 11 89 6 0 238 -129 515 -287z m-336 -299
l0 -254 -37 -23 c-21 -13 -64 -39 -95 -56 l-58 -33 0 365 0 366 95 -56 95 -55
0 -254z m435 2 l400 -233 3 -226 c1 -125 0 -227 -4 -227 -3 0 -174 95 -380
210 -206 116 -390 218 -409 227 l-35 17 0 233 c0 180 3 233 13 233 6 -1 192
-106 412 -234z m5 -489 l395 -223 3 -117 c1 -64 -1 -117 -4 -117 -11 0 -994
564 -994 570 1 7 183 109 195 109 6 0 188 -100 405 -222z m-67 -222 l467 -270
0 -113 0 -114 -49 29 c-27 15 -258 150 -515 298 l-466 270 0 113 0 112 48 -27
c26 -16 258 -149 515 -298z m-400 -17 l27 -20 -2 -260 -3 -261 -84 -48 c-47
-26 -88 -46 -93 -43 -4 3 -8 167 -8 365 l0 361 68 -38 c37 -20 79 -46 95 -56z
m682 -394 l185 -107 0 -234 0 -234 -32 17 c-37 19 -576 324 -708 401 l-85 49
-3 94 c-1 51 -1 99 2 107 4 10 53 13 231 13 l226 0 184 -106z m5376 24 c3
-130 3 -138 11 -138 3 0 12 -17 19 -37 6 -21 15 -40 18 -43 17 -13 50 -69 44
-73 -5 -2 -3 -3 4 -1 6 1 19 -6 28 -16 13 -14 13 -19 3 -24 -9 -4 -9 -5 2 -5
28 2 36 -1 56 -19 10 -10 45 -24 77 -31 31 -8 57 -17 57 -20 0 -4 32 -7 71 -7
39 0 65 2 58 5 -7 2 14 12 45 22 32 9 66 15 75 12 12 -3 13 -2 3 4 -9 7 -6 13
14 24 27 14 114 95 113 105 -2 12 24 64 32 64 5 0 8 3 7 8 -5 23 17 104 31
112 9 6 11 10 4 10 -7 0 -13 7 -13 15 0 8 6 15 13 16 10 0 10 2 0 6 -7 2 -13
11 -13 19 0 8 6 14 13 15 10 0 10 2 0 6 -7 2 -13 11 -13 19 0 8 6 14 13 14 8
0 7 4 -3 10 -10 6 36 10 140 10 104 0 150 -4 140 -10 -10 -6 -11 -10 -2 -10 6
0 12 -7 12 -15 0 -8 -6 -15 -12 -16 -10 0 -10 -2 0 -6 6 -2 12 -11 12 -19 0
-8 -6 -14 -12 -15 -10 0 -10 -2 0 -6 6 -2 12 -11 12 -19 0 -8 -6 -14 -12 -15
-10 0 -10 -2 0 -6 6 -2 12 -11 12 -19 0 -8 -6 -14 -12 -15 -10 0 -10 -2 0 -6
13 -5 17 -33 5 -33 -5 0 -9 -19 -10 -43 0 -24 -9 -61 -19 -82 -9 -22 -18 -42
-18 -45 -5 -24 -31 -70 -39 -70 -6 0 -7 -3 -4 -6 9 -10 -28 -59 -102 -137 -49
-51 -69 -66 -85 -62 -12 3 -15 2 -8 -1 16 -7 -3 -34 -25 -34 -7 0 -23 -9 -35
-20 -12 -11 -32 -20 -45 -20 -13 0 -23 -4 -23 -9 0 -12 -90 -42 -102 -35 -5 3
-15 1 -22 -5 -8 -6 -49 -14 -92 -17 -107 -8 -229 15 -332 62 -43 20 -53 28
-41 35 11 8 9 9 -6 5 -11 -3 -33 3 -50 14 -16 11 -25 20 -20 20 6 0 -1 6 -15
13 -14 8 -24 19 -22 27 2 7 -3 10 -12 7 -17 -7 -79 60 -70 75 3 4 -1 8 -8 8
-14 0 -73 89 -69 104 2 5 -2 12 -8 16 -18 10 -51 110 -38 110 8 0 8 3 -1 8
-22 14 -32 73 -32 184 l0 108 150 0 150 0 1 -82z m736 -10 c-10 -170 -74 -276
-205 -340 -59 -30 -76 -33 -152 -33 -76 0 -93 4 -151 32 -78 39 -141 102 -176
179 -19 43 -26 78 -30 155 l-6 99 363 0 363 0 -6 -92z m-6274 -418 l347 -195
0 -118 0 -118 -22 12 c-55 29 -945 539 -961 551 -16 12 -8 19 79 70 l97 56 56
-31 c32 -18 213 -120 404 -227z m-159 -165 l506 -290 0 -107 c0 -60 -2 -108
-5 -108 -2 0 -234 133 -515 296 l-510 296 0 105 c0 58 4 103 9 101 5 -1 236
-133 515 -293z m-406 -4 l72 -42 -2 -261 -3 -262 -80 -48 c-44 -26 -86 -48
-92 -48 -10 0 -13 80 -13 366 l0 366 23 -14 c12 -8 55 -34 95 -57z"/>
<path d="M12560 8589 c-145 -58 -180 -242 -66 -347 l44 -40 -28 -121 -27 -121
148 0 c99 0 149 4 149 11 0 6 -11 60 -26 121 l-25 111 37 30 c91 75 99 218 17
301 -56 57 -156 82 -223 55z"/>
<path d="M5239 8473 c-86 -53 -75 -191 18 -229 49 -21 99 -10 139 30 84 84 28
216 -91 216 -22 0 -52 -8 -66 -17z"/>
<path d="M5649 8451 c-33 -33 -39 -45 -39 -82 0 -56 30 -106 75 -125 48 -20
77 -18 116 9 78 52 88 140 24 204 -29 29 -39 33 -85 33 -47 0 -56 -4 -91 -39z"/>
<path d="M6079 8451 c-34 -33 -39 -45 -39 -83 0 -60 33 -109 86 -127 50 -18
83 -10 129 30 59 52 60 126 0 186 -29 29 -39 33 -85 33 -47 0 -56 -4 -91 -39z"/>
<path d="M9745 6590 l-740 -5 -663 -245 -663 -245 7 -1580 c4 -869 8 -1581 9
-1582 1 -2 300 109 666 245 l664 247 883 3 882 2 0 504 c0 276 -3 989 -7 1584
l-6 1082 -146 -2 c-80 -2 -479 -5 -886 -8z m-730 -1586 c4 -873 4 -1559 -1
-1563 -12 -10 -1295 -483 -1299 -479 -1 2 -4 705 -6 1562 l-4 1559 640 238
c352 131 645 238 651 238 8 1 13 -419 19 -1555z"/>
<path d="M11260 4988 c0 -13 147 -939 156 -980 5 -27 8 -25 161 98 116 92 159
122 168 114 7 -6 57 -66 110 -135 l98 -124 59 47 c33 26 69 54 80 63 20 16 19
18 -86 149 -58 73 -106 135 -105 139 0 3 70 62 156 130 l156 123 -414 168
c-228 92 -442 179 -476 193 -36 14 -63 21 -63 15z m463 -199 c232 -94 428
-174 435 -178 11 -6 -124 -122 -276 -237 -12 -9 4 -34 92 -144 59 -73 105
-136 104 -140 -7 -18 -120 -102 -127 -94 -4 5 -54 66 -110 136 l-101 128 -152
-121 c-84 -67 -154 -117 -155 -112 -1 4 -34 208 -73 453 -39 245 -72 453 -74
463 -2 9 0 17 5 17 5 0 199 -77 432 -171z"/>
<path d="M4290 6813 c-33 -12 -40 -36 -40 -146 0 -110 -9 -147 -35 -147 -22 0
-18 -16 10 -44 24 -24 25 -31 25 -133 0 -128 11 -153 66 -153 43 0 44 13 2 25
l-33 10 -5 122 c-4 98 -8 126 -22 140 -17 16 -17 18 0 36 13 15 18 44 22 140
l5 122 29 5 c36 6 48 30 14 29 -12 0 -30 -3 -38 -6z"/>
<path d="M4670 6805 c0 -9 9 -15 25 -15 36 0 45 -27 45 -144 0 -90 3 -109 19
-125 18 -18 18 -19 0 -35 -17 -14 -19 -31 -19 -130 0 -122 -8 -146 -51 -146
-10 0 -19 -4 -19 -10 0 -15 53 -12 76 4 17 13 19 30 23 141 3 111 5 128 22
138 24 15 24 29 0 44 -16 10 -19 27 -22 133 -4 114 -6 123 -28 141 -28 23 -71
25 -71 4z"/>
</g>
</svg>
